<svg width="300" height="200" viewBox="0 0 960 632" fill="none" xmlns="http://www.w3.org/2000/svg">
<path d="M734.652 0C524.034 0 504.621 153.5 504.621 283.346L622.961 283.346V229C622.961 141.203 686.784 122.384 738.641 122.384C790.498 122.384 849.002 144.647 849.002 235.457C849.002 306.308 782.52 333.896 745.289 337.887H270.602C44.0284 337.887 -26.798 560.484 -33.8895 671.783C-36.992 784.855 24.0836 1011 293.206 1011C562.328 1011 625.177 784.855 622.961 671.783V512.151H504.621V671.783C504.621 846.047 349.052 884.625 293.206 884.625C237.36 884.625 95.0872 852.699 88.4389 671.783C83.1203 527.05 207.665 469.583 270.602 458.941H745.289C923.335 458.941 960 297.137 960 247.981C960 181.943 945.27 0 734.652 0Z" fill="url(#paint0_linear_1_8)"/>
<defs>
<linearGradient id="paint0_linear_1_8" x1="896.568" y1="-0.000120193" x2="-34.4543" y2="916.629" gradientUnits="userSpaceOnUse">
<stop stop-color="#2697FF"/>
<stop offset="1" stop-color="#001A32"/>
</linearGradient>
</defs>
</svg>
