<svg width="383" height="249" viewBox="0 0 383 249" fill="none" xmlns="http://www.w3.org/2000/svg">
<path d="M251.099 88.1586V107.749H204.202V90.5094C204.202 25.468 251.099 9.93642e-06 292.135 0C336.102 -3.74759e-06 383 26.4476 383 81.3018C383 154.767 328.611 174.031 290.181 174.031C251.751 174.031 176.844 175.338 124.475 175.338C58.6225 175.338 46.898 235.09 46.898 252.721C46.898 258.598 47.875 336.962 126.038 336.962C188.569 336.962 204.202 280.801 204.202 252.721V195.908H251.099V252.721C251.099 361.45 162.189 383 126.038 383C89.8878 383 0 361.45 0 252.721C0 165.738 73.2781 128.32 111.383 128.32H292.135C333.562 128.32 338.707 95.0154 336.102 78.3632C334.402 67.5 320.274 46.0384 292.135 46.0384C263.996 46.0384 251.099 67.5882 251.099 88.1586Z" fill="url(#paint0_linear_1_7)"/>
<defs>
<linearGradient id="paint0_linear_1_7" x1="383" y1="-0.979518" x2="-0.978289" y2="382.019" gradientUnits="userSpaceOnUse">
<stop stop-color="#4EAAFF"/>
<stop offset="1" stop-color="#111964"/>
</linearGradient>
</defs>
</svg>
