<svg width="533" height="394" viewBox="0 0 533 394" fill="none" xmlns="http://www.w3.org/2000/svg">
<path d="M392.214 0C260.631 0 248.503 95.9565 248.503 177.126L322.435 177.126V143.153C322.435 88.2691 362.309 76.5053 394.706 76.5053C427.104 76.5053 463.654 90.4224 463.654 147.189C463.654 191.48 422.119 208.726 398.86 211.221H102.3C-39.2519 211.221 -83.5005 350.372 -87.9309 419.947C-89.8692 490.632 -51.7124 632 116.421 632C284.555 632 323.82 490.632 322.435 419.947V320.158H248.503V419.947C248.503 528.884 151.311 553 116.421 553C81.532 553 -7.35297 533.042 -11.5065 419.947C-14.8293 329.472 62.9797 293.547 102.3 286.895H398.86C510.093 286.895 533 185.747 533 155.019C533 113.737 523.797 0 392.214 0Z" fill="url(#paint0_linear_1_8)"/>
<defs>
<linearGradient id="paint0_linear_1_8" x1="493.371" y1="-7.51358e-05" x2="-88.6275" y2="572.657" gradientUnits="userSpaceOnUse">
<stop stop-color="#2697FF"/>
<stop offset="1" stop-color="#001A32"/>
</linearGradient>
</defs>
</svg>
