<svg width="844" height="498" viewBox="0 0 844 498" fill="none" xmlns="http://www.w3.org/2000/svg">
<rect width="844" height="498" fill="#1E1E1E"/>
<mask id="mask0_0_1" style="mask-type:alpha" maskUnits="userSpaceOnUse" x="0" y="208" width="453" height="290">
<rect y="208" width="453" height="290" fill="#D9D9D9"/>
</mask>
<g mask="url(#mask0_0_1)">
<path d="M251.099 337.159V356.749H204.202V339.509C204.202 274.468 251.099 249 292.135 249C336.102 249 383 275.448 383 330.302C383 403.767 328.611 423.031 290.181 423.031C251.751 423.031 176.844 424.338 124.475 424.338C58.6225 424.338 46.898 484.09 46.898 501.721C46.898 507.598 47.875 585.962 126.038 585.962C188.569 585.962 204.202 529.801 204.202 501.721V444.908H251.099V501.721C251.099 610.45 162.189 632 126.038 632C89.8878 632 0 610.45 0 501.721C0 414.738 73.2781 377.32 111.383 377.32H292.135C333.562 377.32 338.707 344.015 336.102 327.363C334.402 316.5 320.274 295.038 292.135 295.038C263.996 295.038 251.099 316.588 251.099 337.159Z" fill="url(#paint0_linear_0_1)"/>
</g>
<defs>
<linearGradient id="paint0_linear_0_1" x1="383" y1="248.02" x2="-0.978289" y2="631.019" gradientUnits="userSpaceOnUse">
<stop stop-color="#4EAAFF"/>
<stop offset="1" stop-color="#111964"/>
</linearGradient>
</defs>
</svg>
